<svg width="40" height="40" viewBox="0 0 40 40" fill="none" xmlns="http://www.w3.org/2000/svg">
<path d="M25.2681 27.2923L18.2739 23.7952M14.5211 17.5682L21.5153 14.0712M34.4806 29.4675C34.4806 32.1527 32.3038 34.3295 29.6186 34.3295C26.9334 34.3295 24.7566 32.1527 24.7566 29.4675C24.7566 26.7823 26.9334 24.6055 29.6186 24.6055C32.3038 24.6055 34.4806 26.7823 34.4806 29.4675ZM34.4806 10.0195C34.4806 12.7047 32.3038 14.8815 29.6186 14.8815C26.9334 14.8815 24.7566 12.7047 24.7566 10.0195C24.7566 7.33429 26.9334 5.1575 29.6186 5.1575C32.3038 5.1575 34.4806 7.33429 34.4806 10.0195ZM15.0326 19.7435C15.0326 22.4287 12.8558 24.6055 10.1706 24.6055C7.48539 24.6055 5.30859 22.4287 5.30859 19.7435C5.30859 17.0583 7.48539 14.8815 10.1706 14.8815C12.8558 14.8815 15.0326 17.0583 15.0326 19.7435Z" stroke="#262525" stroke-width="1.716" stroke-linecap="round" stroke-linejoin="round"/>
</svg>
