<?xml version="1.0" standalone="no"?>
<!DOCTYPE svg PUBLIC "-//W3C//DTD SVG 20010904//EN"
 "http://www.w3.org/TR/2001/REC-SVG-20010904/DTD/svg10.dtd">
<svg version="1.0" xmlns="http://www.w3.org/2000/svg"
 width="512.000000pt" height="512.000000pt" viewBox="0 0 512.000000 512.000000"
 preserveAspectRatio="xMidYMid meet">
<metadata>
Created by potrace 1.14, written by Peter Selinger 2001-2017
</metadata>
<g transform="translate(0.000000,512.000000) scale(0.100000,-0.100000)"
fill="#000000" stroke="none">
<path d="M1780 5109 c-368 -43 -755 -204 -1030 -429 -419 -343 -681 -822 -739
-1352 -14 -126 -14 -1410 -1 -1533 42 -373 182 -723 409 -1020 68 -90 246
-269 336 -340 304 -238 660 -383 1037 -424 126 -14 1410 -14 1533 -1 373 42
723 182 1020 409 90 68 269 246 340 336 238 304 383 660 424 1037 14 126 14
1410 1 1533 -59 529 -307 992 -715 1333 -296 248 -675 409 -1067 451 -117 13
-1436 13 -1548 0z m868 -580 c55 -27 89 -78 117 -177 l23 -77 112 -68 c170
-101 263 -172 375 -282 219 -217 337 -412 420 -700 80 -278 118 -688 96 -1040
-13 -204 -34 -352 -58 -402 -50 -107 -210 -165 -533 -194 -74 -6 -136 -13
-138 -14 -1 -1 45 -105 102 -231 58 -125 104 -229 103 -230 -1 -1 -62 -29
-135 -63 l-132 -60 -24 47 c-49 98 -208 453 -205 457 2 2 38 19 79 38 l75 35
-112 1 -113 1 -2 -422 -3 -423 -147 -3 -148 -3 0 424 0 424 -77 7 c-42 3 -92
6 -112 6 -33 -1 -31 -3 34 -28 46 -19 69 -33 68 -43 -3 -17 -179 -474 -190
-493 -11 -18 -280 85 -275 106 2 7 41 113 88 236 47 123 83 226 81 229 -3 3
-66 12 -139 20 -238 25 -395 67 -459 120 -77 65 -94 150 -93 468 1 631 134
1201 348 1489 122 166 234 264 486 430 160 106 210 151 210 190 0 38 30 127
57 167 29 44 93 79 142 79 19 0 54 -10 79 -21z"/>
<path d="M2535 4014 c-22 -20 -121 -91 -220 -157 -372 -250 -490 -412 -590
-807 -74 -294 -123 -786 -101 -1022 l8 -76 42 -11 c64 -16 223 -38 381 -53
192 -18 999 -18 1150 0 122 15 246 39 257 50 34 35 44 622 14 846 -43 329
-121 562 -244 736 -66 92 -213 243 -306 312 -44 33 -132 90 -197 129 -65 38
-121 74 -124 79 -11 17 -29 10 -70 -26z"/>
</g>
</svg>
